<svg xmlns="http://www.w3.org/2000/svg" width="600" height="822" viewBox="0 0 600 822">
<defs>
  <style>
    .bg { fill: #0d1117; rx: 10; }
    .title { font-family: 'Segoe UI', sans-serif; font-size: 18px; font-weight: 600; fill: #58a6ff; }
    .subtitle { font-family: 'Segoe UI', sans-serif; font-size: 12px; fill: #8b949e; }
    .group-title { font-family: 'Segoe UI', sans-serif; font-size: 14px; font-weight: 600; fill: #c9d1d9; }
    .label { font-family: 'Segoe UI', sans-serif; font-size: 12px; fill: #e6edf3; }
    .value { font-family: 'Segoe UI', sans-serif; font-size: 12px; fill: #8b949e; }
    .bar-bg { fill: #161b22; rx: 4; }
    .row { opacity: 0; animation: fadeInRight 0.5s ease forwards; }
    @keyframes fadeInRight { from { opacity: 0; transform: translateX(-10px); } to { opacity: 1; transform: translateX(0); } }
  </style>
</defs>
<rect class="bg" width="100%" height="100%"/>
<text class="title" x="30" y="40">⚡ Winload Benchmarks</text><text class="subtitle" x="30" y="70">Runner: runnervmnay03</text>
<text class="subtitle" x="30" y="90">OS: Linux 6.14.0-1017-azure</text>
<text class="subtitle" x="30" y="110">CPU: Intel(R) Xeon(R) Platinum 8370C CPU @ 2.80GHz</text>
<text class="subtitle" x="30" y="130">RAM: 15.6 GB</text>
<line x1="30" y1="140" x2="570" y2="140" stroke="#30363d" stroke-width="1"/>
<text class="group-title" x="30" y="175">Startup Time (lower is better)</text>
<g class="row" style="animation-delay: 0.0s">
<text class="label" x="30" y="210">nload (C++)</text>
<rect class="bar-bg" x="140" y="196" width="300" height="20"/>
<rect x="140" y="196" width="4" height="20" rx="3" fill="#ffd43b">
  <animate attributeName="width" from="0" to="4" dur="0.8s" begin="0.0s" fill="freeze"/>
</rect>
<text class="value" x="450" y="210">1.2 ms</text>
</g>
<g class="row" style="animation-delay: 0.1s">
<text class="label" x="30" y="246">winload (Rust)</text>
<rect class="bar-bg" x="140" y="232" width="300" height="20"/>
<rect x="140" y="232" width="2" height="20" rx="3" fill="#dea584">
  <animate attributeName="width" from="0" to="2" dur="0.8s" begin="0.1s" fill="freeze"/>
</rect>
<text class="value" x="450" y="246">0.6 ms</text>
</g>
<g class="row" style="animation-delay: 0.2s">
<text class="label" x="30" y="282">winload (Py)</text>
<rect class="bar-bg" x="140" y="268" width="300" height="20"/>
<rect x="140" y="268" width="300" height="20" rx="3" fill="#3572A5">
  <animate attributeName="width" from="0" to="300" dur="0.8s" begin="0.2s" fill="freeze"/>
</rect>
<text class="value" x="450" y="282">97.0 ms</text>
</g>
<text class="group-title" x="30" y="333">Binary Size (lower is better)</text>
<g class="row" style="animation-delay: 0.2s">
<text class="label" x="30" y="368">nload (C++)</text>
<rect class="bar-bg" x="140" y="354" width="300" height="20"/>
<rect x="140" y="354" width="37" height="20" rx="3" fill="#ffd43b">
  <animate attributeName="width" from="0" to="37" dur="0.8s" begin="0.2s" fill="freeze"/>
</rect>
<text class="value" x="450" y="368">0.15 MB</text>
</g>
<g class="row" style="animation-delay: 0.3s">
<text class="label" x="30" y="404">winload (Rust)</text>
<rect class="bar-bg" x="140" y="390" width="300" height="20"/>
<rect x="140" y="390" width="300" height="20" rx="3" fill="#dea584">
  <animate attributeName="width" from="0" to="300" dur="0.8s" begin="0.3s" fill="freeze"/>
</rect>
<text class="value" x="450" y="404">1.17 MB</text>
</g>
<g class="row" style="animation-delay: 0.4s">
<text class="label" x="30" y="440">winload (Py)</text>
<rect class="bar-bg" x="140" y="426" width="300" height="20"/>
<rect x="140" y="426" width="226" height="20" rx="3" fill="#3572A5">
  <animate attributeName="width" from="0" to="226" dur="0.8s" begin="0.4s" fill="freeze"/>
</rect>
<text class="value" x="450" y="440">0.88 MB</text>
</g>
<text class="group-title" x="30" y="491">Memory Usage (RSS) (lower is better)</text>
<g class="row" style="animation-delay: 0.4s">
<text class="label" x="30" y="526">nload (C++)</text>
<rect class="bar-bg" x="140" y="512" width="300" height="20"/>
<rect x="140" y="512" width="68" height="20" rx="3" fill="#ffd43b">
  <animate attributeName="width" from="0" to="68" dur="0.8s" begin="0.4s" fill="freeze"/>
</rect>
<text class="value" x="450" y="526">4.2 MB</text>
</g>
<g class="row" style="animation-delay: 0.5s">
<text class="label" x="30" y="562">winload (Rust)</text>
<rect class="bar-bg" x="140" y="548" width="300" height="20"/>
<rect x="140" y="548" width="54" height="20" rx="3" fill="#dea584">
  <animate attributeName="width" from="0" to="54" dur="0.8s" begin="0.5s" fill="freeze"/>
</rect>
<text class="value" x="450" y="562">3.4 MB</text>
</g>
<g class="row" style="animation-delay: 0.6s">
<text class="label" x="30" y="598">winload (Py)</text>
<rect class="bar-bg" x="140" y="584" width="300" height="20"/>
<rect x="140" y="584" width="300" height="20" rx="3" fill="#3572A5">
  <animate attributeName="width" from="0" to="300" dur="0.8s" begin="0.6s" fill="freeze"/>
</rect>
<text class="value" x="450" y="598">18.7 MB</text>
</g>
<text class="group-title" x="30" y="649">CPU Usage (10s Idle) (lower is better)</text>
<g class="row" style="animation-delay: 0.6s">
<text class="label" x="30" y="684">nload (C++)</text>
<rect class="bar-bg" x="140" y="670" width="300" height="20"/>
<rect x="140" y="670" width="2" height="20" rx="3" fill="#ffd43b">
  <animate attributeName="width" from="0" to="2" dur="0.8s" begin="0.6s" fill="freeze"/>
</rect>
<text class="value" x="450" y="684">0.00%</text>
</g>
<g class="row" style="animation-delay: 0.7s">
<text class="label" x="30" y="720">winload (Rust)</text>
<rect class="bar-bg" x="140" y="706" width="300" height="20"/>
<rect x="140" y="706" width="2" height="20" rx="3" fill="#dea584">
  <animate attributeName="width" from="0" to="2" dur="0.8s" begin="0.7s" fill="freeze"/>
</rect>
<text class="value" x="450" y="720">0.00%</text>
</g>
<g class="row" style="animation-delay: 0.8s">
<text class="label" x="30" y="756">winload (Py)</text>
<rect class="bar-bg" x="140" y="742" width="300" height="20"/>
<rect x="140" y="742" width="300" height="20" rx="3" fill="#3572A5">
  <animate attributeName="width" from="0" to="300" dur="0.8s" begin="0.8s" fill="freeze"/>
</rect>
<text class="value" x="450" y="756">87.50%</text>
</g>
<text class="subtitle" x="30" y="807">📅 Updated: 2026-03-03 14:03:25</text>
</svg>